<?xml version="1.0" encoding="utf-8"?>
<svg width="100%" height="100%" viewBox="0 0 612 220" version="1.1" style="fill-rule:evenodd;clip-rule:evenodd;stroke-miterlimit:10;" xmlns="http://www.w3.org/2000/svg">
  <g id="BG" transform="matrix(1,0,0,0.603203,0,0)">
    <rect x="0" y="0" width="612" height="364.72" style="fill: rgb(30, 82, 101);"/>
  </g>
  <g id="Stars" transform="matrix(1,0,0,0.53012,0,0)">
    <path d="M54.58,131.57L53.16,136.28L50.26,137.09L53.19,138.71L54.58,146.61L55.79,138.71L58.73,137.29L55.74,136.28L54.58,131.57Z" style="fill:rgb(182,224,234);fill-rule:nonzero;"/>
    <path d="M398.39,16.83L396.97,21.54L394.06,22.35L397,23.97L398.39,31.87L399.6,23.97L402.54,22.55L399.55,21.54L398.39,16.83Z" style="fill:rgb(182,224,234);fill-rule:nonzero;"/>
    <path d="M536.44,113.71L535.03,118.42L532.12,119.23L535.05,120.85L536.44,128.75L537.65,120.85L540.59,119.43L537.6,118.42L536.44,113.71Z" style="fill:rgb(182,224,234);fill-rule:nonzero;"/>
    <path d="M462.81,12.78L461.73,16.38L459.5,17L461.75,18.24L462.81,24.28L463.74,18.24L465.99,17.15L463.7,16.38L462.81,12.78Z" style="fill:rgb(182,224,234);fill-rule:nonzero;"/>
    <g transform="matrix(1,0,0,1,51.9882,20.4344)">
      <path d="M462.81,12.78L461.73,16.38L459.5,17L461.75,18.24L462.81,24.28L463.74,18.24L465.99,17.15L463.7,16.38L462.81,12.78Z" style="fill:rgb(182,224,234);fill-rule:nonzero;"/>
    </g>
    <path d="M22.87,152.6L21.79,156.2L19.56,156.83L21.8,158.07L22.87,164.11L23.79,158.07L26.04,156.98L23.76,156.2L22.87,152.6Z" style="fill:rgb(182,224,234);fill-rule:nonzero;"/>
    <path d="M263.08,11.07L262,14.68L259.77,15.3L262.02,16.54L263.08,22.58L264.01,16.54L266.26,15.45L263.97,14.68L263.08,11.07Z" style="fill:rgb(182,224,234);fill-rule:nonzero;"/>
    <path d="M336.98,25.04L335.9,28.64L333.67,29.26L335.92,30.5L336.98,36.54L337.91,30.5L340.16,29.41L337.87,28.64L336.98,25.04Z" style="fill:rgb(182,224,234);fill-rule:nonzero;"/>
    <path d="M336.98,25.04L335.9,28.64L333.67,29.26L335.92,30.5L336.98,36.54L337.91,30.5L340.16,29.41L337.87,28.64L336.98,25.04Z" style="fill:rgb(182,224,234);fill-rule:nonzero;"/>
    <path d="M599.72,266.93L598.31,271.64L595.4,272.45L598.33,274.07L599.72,281.97L600.93,274.07L603.87,272.65L600.88,271.64L599.72,266.93Z" style="fill:rgb(182,224,234);fill-rule:nonzero;"/>
    <path d="M588.6,75.07L587.18,79.78L584.27,80.6L587.21,82.22L588.6,90.11L589.81,82.22L592.75,80.8L589.76,79.78L588.6,75.07Z" style="fill:rgb(182,224,234);fill-rule:nonzero;"/>
    <path d="M19.93,11.01L18.51,15.72L15.6,16.54L18.54,18.16L19.93,26.05L21.14,18.16L24.08,16.73L21.09,15.72L19.93,11.01Z" style="fill:rgb(182,224,234);fill-rule:nonzero;"/>
    <path d="M148.53,9.31L147.11,14.02L144.2,14.83L147.14,16.45L148.53,24.35L149.73,16.45L152.68,15.03L149.69,14.02L148.53,9.31Z" style="fill:rgb(182,224,234);fill-rule:nonzero;"/>
    <path d="M97.55,94.22L96.14,98.94L93.22,99.75L96.16,101.37L97.55,109.27L98.76,101.37L101.7,99.95L98.71,98.94L97.55,94.22Z" style="fill:rgb(182,224,234);fill-rule:nonzero;"/>
    <path d="M30.22,63.75L26.67,75.55L19.38,77.59L26.74,81.65L30.22,101.44L33.24,81.65L40.62,78.09L33.13,75.55L30.22,63.75Z" style="fill:rgb(182,224,234);fill-rule:nonzero;"/>
    <path d="M22.95,209L20.55,217L15.6,218.38L20.59,221.13L22.95,234.54L25,221.13L30,218.72L24.92,217L22.95,209Z" style="fill:rgb(182,224,234);fill-rule:nonzero;"/>
    <path d="M202.03,37.12L199.62,45.12L194.68,46.51L199.67,49.26L202.03,62.67L204.08,49.26L209.07,46.84L204,45.12L202.03,37.12Z" style="fill:rgb(182,224,234);fill-rule:nonzero;"/>
    <path d="M577.22,186.22L574.82,194.22L569.88,195.6L574.87,198.35L577.22,211.76L579.27,198.35L584.27,195.93L579.2,194.22L577.22,186.22Z" style="fill:rgb(182,224,234);fill-rule:nonzero;"/>
    <path d="M570.02,24.35L567.62,32.35L562.68,33.73L567.67,36.48L570.02,49.9L572.08,36.48L577.08,34.07L572,32.35L570.02,24.35Z" style="fill:rgb(182,224,234);fill-rule:nonzero;"/>
    <path d="M75.88,24.35L73.48,32.35L68.54,33.73L73.52,36.48L75.88,49.9L77.93,36.48L82.93,34.07L77.86,32.35L75.88,24.35Z" style="fill:rgb(182,224,234);fill-rule:nonzero;"/>
    <path d="M599.7,5.32L598.62,8.93L596.39,9.55L598.64,10.79L599.7,16.83L600.63,10.79L602.88,9.7L600.59,8.93L599.7,5.32Z" style="fill:rgb(182,224,234);fill-rule:nonzero;"/>
    <path d="M577.14,140.86L576.06,144.46L573.83,145.08L576.08,146.32L577.14,152.36L578.07,146.32L580.32,145.23L578.03,144.46L577.14,140.86Z" style="fill:rgb(182,224,234);fill-rule:nonzero;"/>
    <path d="M12.43,280.74L11.35,284.35L9.12,284.97L11.37,286.21L12.43,292.25L13.35,286.21L15.6,285.12L13.32,284.35L12.43,280.74Z" style="fill:rgb(182,224,234);fill-rule:nonzero;"/>
  </g>
  <g id="Moon" transform="matrix(1,0,0,0.53012,0,0)">
    <circle cx="305" cy="211.76" r="174.64" style="fill: rgb(97, 148, 169);"/>
  </g>
  <g id="Mountains" transform="matrix(1,0,0,0.53012,0,0)">
    <path d="M0,366.17C0,366.17 -0.071,347.825 -0.043,347.76C28.404,282.575 124.901,67.063 153.74,75.3C187.7,85 300.74,366.55 307.29,366.55L0,366.17Z" style="fill-rule: nonzero; fill: rgb(30, 88, 111);"/>
    <path d="M354.85,366.25C354.85,366.25 462.27,132 490.82,139.53C515.105,145.935 587.493,305.691 611.974,353.276C612.086,353.493 611.996,366.533 611.998,366.533L354.85,366.25Z" style="fill-rule: nonzero; fill: rgb(30, 88, 111);"/>
    <path d="M443.77,366.55L138.9,366.36C138.9,366.36 250.5,51 291.34,20.31C332.18,-10.38 443.77,366.55 443.77,366.55Z" style="fill-rule: nonzero; fill: rgb(24, 76, 94);"/>
    <path d="M115.62,152.21L130.71,138.91L141.86,151.49L150.86,138.19L164.34,151.67L175.66,138.55L184.95,152.55L199.43,139.85C180.53,104.14 163.73,77.85 153.76,74.99C142.56,71.79 121.15,102.36 97.48,144.75L105.21,138.86L115.62,152.21Z" style="fill-rule: nonzero; fill: rgb(108, 159, 185);"/>
    <path d="M484.07,191.63L495.84,201.12L511,191.63L520.7,202.05L532.09,194.94C515.02,164.52 499.68,141.62 490.79,139.27C481.17,136.72 462.57,161.66 442.16,195.84L447.38,202.41L457.08,191.63L470.02,202.41L484.07,191.63Z" style="fill-rule: nonzero; fill: rgb(108, 161, 187);"/>
    <path d="M291.34,20.05C279.99,28.59 263.19,59.05 244.83,98.69L251.33,105.69L268.59,94.91L281.17,107.49L296.26,96L306.69,109.3L321.78,96L332.92,108.58L341.92,95.28L353.73,107.09C329.44,50 305.89,9.1 291.34,20.05Z" style="fill-rule: nonzero; fill: rgb(116, 169, 195);"/>
  </g>
  <g id="Trees" transform="matrix(1,0,0,0.53012,0,0)">
    <path d="M121.69,364.72L146.11,326.27L132.91,326.27L154.66,292.03L143.42,292.03L164.19,259.33L153.07,259.33L178.26,219.66L204.07,259.33L192.44,259.33L213.72,292.03L201.94,292.03L224.23,326.27L210.42,326.27L235.45,364.72L121.69,364.72Z" style="fill-rule: nonzero; fill: rgb(17, 58, 73);"/>
    <path d="M245.77,364.7L293.89,288.93L267.89,288.93L310.73,221.46L288.58,221.46L329.51,157.01L307.6,157.01L357.24,78.84L408.11,157.01L385.19,157.01L427.13,221.46L403.91,221.46L447.82,288.93L420.62,288.93L469.94,364.7L245.77,364.7Z" style="fill-rule: nonzero; fill: rgb(18, 60, 75);"/>
    <path d="M54.49,364.72L66.7,345.5L60.1,345.5L70.97,328.38L65.36,328.38L75.74,312.02L70.18,312.02L82.78,292.19L95.68,312.02L89.87,312.02L100.51,328.38L94.62,328.38L105.76,345.5L98.86,345.5L111.37,364.72L54.49,364.72Z" style="fill-rule: nonzero; fill: rgb(18, 69, 88);"/>
    <path d="M480.26,364.7L496.72,338.79L487.83,338.79L502.48,315.71L494.9,315.71L508.9,293.66L501.41,293.66L518.39,266.93L535.79,293.66L527.95,293.66L542.29,315.71L534.35,315.71L549.37,338.79L540.07,338.79L556.94,364.7L480.26,364.7Z" style="fill-rule: nonzero; fill: rgb(21, 61, 76);"/>
  </g>
  <g id="FG" transform="matrix(1,0,0,0.53012,0,0)">
    <path d="M0,360.896C33.34,358.506 20.24,355.81 40.62,359.07C61,362.33 108.31,359.39 115,360.86C121.69,362.33 175.25,365.54 185.67,363.93C196.09,362.32 228.95,367.36 247.67,365.98C266.39,364.6 307.24,361.33 316.36,363.66C325.48,365.99 348.36,363.27 368.36,362.6C388.36,361.93 404.36,361.01 415.03,362.14C425.7,363.27 439.1,362.9 459.7,362.6C480.3,362.3 514.23,358.87 518.63,359.07C523.03,359.27 554.79,355.53 569.91,359.07C585.03,362.61 607.75,364.068 612,362.238C612.018,362.23 612,415 612,415L0,415.047L0,360.896Z" style="fill-rule: nonzero; fill: rgb(17, 58, 74);"/>
  </g>
  <g id="Tent" transform="matrix(1,0,0,0.53012,0,0)">
    <g transform="matrix(1,0,0,1,5,0)">
      <path d="M437.46,363.93C437.46,363.196 436.864,362.6 436.13,362.6L436.12,362.6C435.386,362.6 434.79,363.196 434.79,363.93L434.79,372.44C434.79,373.174 435.386,373.77 436.12,373.77L436.13,373.77C436.864,373.77 437.46,373.174 437.46,372.44L437.46,363.93Z" style="fill:rgb(188,188,188);"/>
    </g>
    <g transform="matrix(1,0,0,1,5,0)">
      <path d="M163.86,363.93C163.86,363.196 163.264,362.6 162.53,362.6L162.52,362.6C161.786,362.6 161.19,363.196 161.19,363.93L161.19,372.44C161.19,373.174 161.786,373.77 162.52,373.77L162.53,373.77C163.264,373.77 163.86,373.174 163.86,372.44L163.86,363.93Z" style="fill:rgb(188,188,188);"/>
    </g>
    <g transform="matrix(1,0,0,1,5,0)">
      <path d="M306.95,263.48L433.88,365.72L435.08,367.98L437.45,368.6" style="fill-rule:nonzero;stroke:rgb(112,112,113);stroke-width:1px;"/>
    </g>
    <g transform="matrix(1,0,0,1,5,0)">
      <path d="M293.75,263.48L164.6,366.1L163.61,368.37L161.09,368.6" style="fill-rule:nonzero;stroke:rgb(112,112,113);stroke-width:1px;"/>
    </g>
    <g transform="matrix(1,0,0,1,5,0)">
      <path d="M300.54,220.14C274.64,281.28 240.54,335.64 192.43,384.04L408.6,384.04C356.77,332.75 325.45,280.6 300.54,220.14Z" style="fill-rule: nonzero; fill: rgb(198, 135, 71);"/>
    </g>
    <g transform="matrix(1,0,0,1,5,0)">
      <path d="M274.45,384.22L325.45,384.22L300.35,280.22L274.45,384.22Z" style="fill-rule: nonzero; fill: rgb(33, 44, 60);"/>
    </g>
    <g transform="matrix(1,0,0,1,5,0)">
      <path d="M247.64,384L274.69,384L300.35,280.1C284.87,324.88 267.1,360.94 247.64,384Z" style="fill-rule: nonzero; fill: rgb(164, 110, 72);"/>
    </g>
    <g transform="matrix(1,0,0,1,5,0)">
      <path d="M352.31,384L325.26,384L300.44,280.22C315.93,325 332.85,360.94 352.31,384Z" style="fill-rule: nonzero; fill: rgb(164, 110, 72);"/>
    </g>
  </g>
  <g id="Grass" transform="matrix(1,0,0,0.53012,0,0)">
    <g transform="matrix(1,0,0,1,5,0)">
      <path d="M379.54,385.25C379.54,385.25 375.82,374.41 377.27,370.37C378.42,374.11 382.37,376.84 382.37,376.84L385.2,367.13L389.64,375.54C389.64,375.54 393.05,371.83 393.05,370.62C393.05,369.41 396.92,379.26 396.92,379.26C396.92,379.26 400.16,374.01 400.56,371.98C400.96,369.95 402.48,384.92 400.06,385.33C397.64,385.74 379.54,385.25 379.54,385.25Z" style="fill:rgb(2,48,53);fill-rule:nonzero;"/>
    </g>
    <g transform="matrix(1,0,0,1,5,0)">
      <path d="M205.76,385.49C205.76,385.49 204.34,373.16 202,369C199.66,364.84 208.52,377.25 208.52,377.25L212.34,366.5L212.34,377.5C212.34,377.5 218.34,373.5 218.34,369C218.34,364.5 220.06,376.95 220.34,379.53C220.71,382.59 220.88,385.53 213.34,385.53L205.76,385.49Z" style="fill:rgb(2,48,53);fill-rule:nonzero;"/>
    </g>
    <g transform="matrix(1,0,0,1,5,0)">
      <path d="M218.57,386.25L215.24,378.25L219.9,382.53L221.57,379.53L223.24,382.53L225.14,377.05L226.9,382L229.9,379.57L229.9,384.36C229.9,386.32 218.57,386.25 218.57,386.25Z" style="fill:rgb(30,86,99);fill-rule:nonzero;"/>
    </g>
  </g>
</svg>