<?xml version="1.0" encoding="utf-8"?>
<svg width="100%" height="100%" viewBox="0 0 6000 4501" version="1.1" style="fill-rule:evenodd;clip-rule:evenodd;stroke-linejoin:round;stroke-miterlimit:2;" xmlns="http://www.w3.org/2000/svg">
  <g transform="matrix(1,0,0,1.1255,0,0)">
    <path d="M0,2000L0,0L5999.93,0L5999.93,4000L0,4000L0,2000L0,2000Z" style="fill-rule: nonzero; fill: rgb(17, 60, 75);"/>
  </g>
  <g>
    <path d="M2906.97,3539L2860.47,3518.67L2837.59,3524C2824.84,3527 2811.72,3530.33 2808.72,3531.33C2805.34,3532.67 2784.34,3523.33 2756.6,3508.67C2722.85,3490.67 2699.97,3481 2671.85,3473C2629.47,3461.33 2628.72,3460.67 2628.72,3430.33C2628.72,3419.67 2627.6,3418.33 2619.35,3418.33C2613.72,3418.33 2609.97,3420.33 2609.6,3423.33C2609.22,3426 2608.85,3430.67 2608.47,3433.33C2607.72,3436 2607.35,3441.67 2606.97,3446C2606.22,3453.33 2605.1,3453.67 2588.6,3451.33C2578.47,3450.33 2568.35,3447.33 2565.35,3445C2559.35,3440 2554.1,3407.67 2552.22,3362.33C2551.47,3344.33 2549.6,3328.33 2548.1,3327.33C2546.6,3326 2541.72,3329 2537.22,3334.33C2532.72,3339.33 2525.97,3343.33 2522.6,3343.33C2518.85,3343.33 2511.72,3339.33 2506.85,3334.33C2501.97,3329 2497.1,3326 2495.6,3327C2494.47,3328.33 2492.6,3344 2491.85,3362C2491.1,3380.33 2488.47,3404.67 2486.22,3416.67C2483.97,3428.67 2480.97,3444.67 2479.85,3452.67C2478.72,3460.33 2476.85,3466.67 2475.72,3466.67C2474.22,3466.67 2464.85,3459 2454.35,3450C2435.97,3433.67 2433.72,3433 2399.6,3427C2375.97,3423 2366.6,3420 2370.72,3418.33C2377.1,3416 2377.1,3415.33 2370.35,3407C2357.6,3390.67 2347.47,3370.33 2349.72,3365C2351.22,3362 2348.97,3356.33 2344.85,3352.33C2333.97,3341.33 2324.22,3320 2329.85,3320C2344.1,3319.67 2344.1,3314.33 2328.72,3289C2314.1,3265 2313.72,3263.67 2321.22,3261.67C2325.35,3260.67 2328.72,3258.33 2328.72,3256.67C2328.72,3251.33 2301.72,3213 2296.85,3211.33C2294.22,3210.33 2292.72,3206.67 2293.85,3203.33C2296.1,3196 2278.1,3166.67 2271.72,3166.67C2269.1,3166.67 2269.1,3165.33 2271.72,3162.33C2274.72,3159 2273.6,3153.33 2266.85,3141C2261.97,3131.33 2258.97,3121 2259.72,3117.67C2261.97,3110 2238.72,3075 2231.22,3075C2225.97,3075 2193.72,3114.67 2193.72,3120.67C2193.72,3122 2196.35,3123.33 2199.35,3123.33C2206.48,3123.33 2206.48,3124.33 2198.23,3136.67L2191.1,3146.67L2179.85,3130.67L2168.6,3114.33L2179.1,3111C2185.1,3109 2189.98,3105.33 2189.98,3102.67C2189.98,3094.33 2154.35,3045 2145.35,3041.33C2137.48,3037.67 2137.1,3037 2143.1,3034C2149.48,3031 2148.73,3028.67 2134.85,3006.33C2126.98,2992.67 2116.48,2980 2111.6,2978C2104.85,2975 2104.48,2973.67 2108.98,2972.33C2117.98,2969.33 2116.1,2960.67 2102.23,2937.33C2091.35,2919.67 2090.23,2916.33 2095.1,2913.67C2099.98,2911.33 2098.48,2906.67 2085.35,2884C2076.73,2869.33 2066.23,2854.67 2062.1,2851.33C2054.6,2845.33 2054.23,2845.67 2041.85,2858.33C2035.1,2865.67 2023.1,2881.67 2015.6,2894.33C2002.85,2915.33 2002.48,2916.67 2009.6,2916.67C2018.23,2916.67 2019.35,2920.67 2014.1,2929.67C2011.1,2934.33 2017.1,2942 2043.73,2968.67C2062.1,2986.67 2077.48,3002.67 2077.48,3003.67C2077.48,3006 2017.1,3014 2014.48,3012C2013.73,3011.33 2020.85,3007.67 2030.23,3003.67C2039.6,3000 2047.48,2994.67 2047.48,2992C2047.48,2989.33 2036.6,2976 2023.48,2962.67C2005.1,2944.33 1992.73,2926.67 1972.85,2891C1955.6,2860 1944.35,2843.33 1939.85,2842.67C1936.1,2842 1952.23,2837 1975.48,2832C1999.48,2826.67 2018.98,2820.33 2020.1,2818C2021.23,2815.33 2013.73,2804 2003.23,2792.67C1993.1,2781 1973.98,2753 1961.23,2730C1923.73,2663 1909.85,2644 1898.23,2642.67C1890.35,2642 1896.35,2639 1922.98,2630C1964.6,2616 1967.6,2611.67 1951.1,2587.67C1941.35,2574 1901.6,2514 1877.6,2476.67C1873.48,2470.33 1862.98,2458.67 1854.73,2450.67C1839.73,2436.67 1838.98,2436.33 1820.61,2438L1801.86,2439.67L1819.48,2432.67C1829.23,2428.67 1838.61,2422.67 1839.73,2419C1842.73,2410.67 1803.73,2339 1781.23,2311.33C1760.23,2286 1744.86,2274.33 1730.61,2272.67C1719.73,2271.67 1720.11,2271.33 1736.23,2266.67L1753.11,2261.67L1752.73,2245C1752.36,2231.67 1747.86,2220.33 1730.98,2190.33C1700.23,2136.33 1693.11,2127.33 1678.86,2126C1667.61,2125 1667.98,2124.67 1686.73,2119C1718.23,2109 1718.23,2107 1685.98,2053.67C1650.73,1994.67 1602.36,1930 1593.73,1930C1591.86,1930 1576.48,1944.33 1559.23,1962C1538.61,1983.33 1513.86,2015.33 1486.11,2056.33C1463.23,2090.33 1445.23,2119 1446.36,2120C1447.11,2121 1459.11,2122.33 1472.23,2123.33L1496.61,2125L1463.23,2173.33C1445.23,2200 1427.61,2229.33 1424.23,2238.33C1411.86,2272.67 1411.86,2270 1426.48,2270C1433.98,2270 1439.98,2271.33 1439.98,2273C1439.98,2274.67 1424.98,2288.67 1406.61,2304C1375.11,2330.33 1372.11,2334 1346.24,2379.67C1318.11,2429.67 1317.74,2433 1337.99,2433.33C1342.49,2433.33 1346.24,2434.33 1346.24,2435.33C1346.24,2438.33 1307.99,2473.33 1304.61,2473.33C1303.11,2473.33 1296.36,2465 1289.99,2455C1283.61,2445 1276.11,2436.67 1273.86,2436.33C1271.24,2436.33 1273.86,2434.67 1279.86,2432.67C1285.49,2431 1289.99,2428 1289.99,2426.33C1289.99,2416 1237.49,2336.33 1230.74,2336.67C1225.49,2337 1195.86,2373 1177.49,2401.33C1166.99,2417.33 1158.74,2431 1158.74,2431.67C1158.74,2432.67 1163.99,2434.33 1169.99,2435.67L1181.24,2438.33L1164.36,2464.33C1144.49,2494.33 1139.61,2509 1148.99,2512C1152.36,2513 1154.24,2515.33 1153.11,2516.67C1151.99,2518.33 1162.86,2536.67 1177.49,2557.67C1191.74,2578.33 1203.74,2597.67 1203.74,2600.67C1203.74,2604.33 1191.74,2607.33 1154.61,2613C1127.99,2617.33 1105.11,2620 1103.99,2619C1102.86,2618 1116.36,2612.33 1133.99,2606.33C1153.49,2599.33 1166.99,2592.67 1169.24,2588.67C1171.49,2583.67 1162.49,2566.67 1127.24,2511.33C1102.11,2472.33 1075.11,2434.33 1067.24,2426.67C1053.36,2413 1051.86,2412.67 1035.36,2414.33L1018.11,2416.33L1033.11,2409.67C1058.99,2397.67 1058.99,2397.33 1036.11,2352.33C1003.49,2288.67 971.614,2251.33 947.24,2249.33L935.615,2248.33L950.615,2243.67C958.865,2241.33 967.489,2237.33 969.739,2234.67C976.864,2227 964.489,2193.33 937.489,2148C913.865,2107.33 911.615,2105 899.615,2103.33L886.865,2101.67L908.24,2093.67C923.99,2088 929.99,2084 929.99,2079.67C929.99,2064 841.866,1927.67 821.616,1912C812.241,1904.33 815.991,1901.67 777.366,1943.33C754.116,1968 733.116,1998 683.617,2074.67C668.993,2097.67 670.493,2100 700.492,2100C710.992,2100 719.992,2101 719.992,2102C719.992,2103 706.492,2124 689.992,2148.67C662.618,2189 650.992,2211.33 643.492,2237.67C641.242,2246.33 641.618,2246.67 654.368,2246.67C661.493,2246.67 667.493,2248 667.493,2249.33C667.493,2250.67 659.993,2258.67 650.618,2266.67L633.743,2281.33L622.868,2272C612.743,2263.33 610.493,2263 590.243,2264.67L568.119,2266.67L589.869,2258C604.493,2252 611.993,2246.67 613.493,2241.67C616.493,2231.33 573.743,2149 547.119,2113.33C535.119,2097.67 518.619,2079 510.369,2071.67C496.869,2060 493.119,2058.67 479.619,2059.67C459.369,2061 463.495,2056 486.745,2050C511.495,2044 514.495,2038 506.245,2009.67C499.869,1987 462.745,1917 442.495,1889.33C432.37,1875 429.745,1873.33 416.995,1873C403.871,1873 404.245,1872.67 428.995,1864C445.495,1858.33 455.995,1852.33 457.87,1848.33C464.995,1831 325.871,1620.33 311.997,1628C310.122,1629 291.372,1648.33 269.997,1671.33C233.622,1710.67 217.873,1732.33 146.248,1844C130.124,1869 130.498,1869.67 160.498,1870.33C197.998,1871 197.998,1870.33 170.248,1911.67C156.748,1932 139.123,1958 130.874,1970C122.999,1982 112.124,2005 106.499,2021C94.874,2054 95.624,2056.67 119.624,2056.67L132.749,2056.67L120.749,2067.67L109.124,2078.33L119.624,2095C125.249,2104.33 140.624,2128 153.374,2148C166.124,2167.67 176.248,2184.67 175.498,2185.33C174.748,2186 159.748,2187.33 142.498,2188.33L110.624,2190.33L130.499,2182C140.999,2177.33 149.999,2172 149.999,2170C149.999,2156.33 67.124,2029 50.249,2016.33C43.499,2011.67 45.374,2010.33 14.249,2043.33L0,2058.33L0,0L5999.93,0L5999.93,2476.33L5979.31,2457C5968.06,2446.33 5958.68,2437 5958.68,2435.67C5958.68,2434.67 5961.68,2433.33 5965.81,2432.67C5972.18,2431.67 5972.18,2430.67 5967.68,2416.67C5965.06,2408.33 5954.56,2389 5944.43,2373.33C5934.31,2357.67 5926.43,2344 5927.56,2342.67C5928.31,2341 5935.06,2340 5942.18,2340C5949.31,2340 5954.93,2339.33 5954.93,2338.67C5954.93,2333.33 5901.31,2254 5886.31,2237.33L5867.56,2216.33L5853.31,2234C5836.81,2254 5797.44,2320.33 5797.44,2327.67C5797.44,2330.33 5803.06,2334.33 5809.81,2336.67C5820.69,2340.33 5821.06,2340.67 5814.31,2343.33C5806.06,2346 5776.81,2397 5772.69,2415.67C5770.44,2425.67 5771.19,2427 5782.81,2431.67C5792.94,2435.33 5793.69,2436.33 5787.31,2436.67C5775.69,2436.67 5754.31,2460.33 5737.06,2492.67C5720.19,2524.33 5719.06,2531 5731.06,2536L5739.31,2539.67L5729.94,2540C5723.56,2540 5717.19,2544.33 5709.69,2553.33C5703.31,2560.67 5697.31,2566.67 5695.44,2566.67C5693.94,2566.67 5689.06,2560.67 5684.94,2553C5680.44,2545.33 5663.94,2527 5648.19,2512.33L5619.69,2485L5629.81,2482C5635.44,2480 5639.94,2477.67 5639.94,2476C5639.94,2474.67 5630.56,2455 5618.94,2432.67C5599.81,2395.67 5594.56,2389 5567.19,2364.33L5536.81,2336.67L5549.19,2336.67C5558.19,2336.67 5561.19,2335.33 5561.19,2331C5561.19,2317 5548.44,2290 5523.31,2251C5494.44,2205.67 5494.44,2203.33 5520.69,2203.33C5528.19,2203.33 5535.31,2202.33 5536.06,2201C5539.06,2196.33 5469.69,2091 5445.69,2063.67C5432.57,2049 5419.82,2035.67 5417.19,2033.67C5407.82,2026.67 5317.44,2164.67 5317.44,2186C5317.44,2190.67 5322.69,2194.33 5335.44,2199.33C5350.82,2205.33 5351.57,2206 5342.94,2206.33C5333.57,2206.67 5330.57,2210.67 5308.82,2249.67C5276.19,2308 5273.19,2327.33 5295.32,2331.67C5309.94,2334.67 5312.94,2340 5299.44,2340C5287.82,2340 5277.32,2348.67 5257.44,2374.67C5241.32,2395.67 5207.57,2463 5210.19,2468.67C5211.32,2471 5218.44,2476 5226.32,2480L5240.57,2487L5221.82,2485C5189.57,2481.33 5186.19,2480 5188.07,2472C5189.57,2467 5185.07,2460 5171.57,2446.67L5152.82,2428.33L5165.57,2425L5177.94,2421.67L5153.57,2375C5131.07,2331.33 5127.32,2326.67 5097.69,2300C5080.44,2284.33 5066.19,2270.33 5066.19,2269C5066.19,2267.67 5071.44,2266.67 5077.44,2266.67C5086.82,2266.67 5088.69,2265.33 5088.69,2259.33C5088.32,2244 5074.07,2214 5045.94,2170L5017.44,2125L5039.94,2122C5052.32,2120.33 5062.44,2118 5062.44,2117C5062.44,2115.67 5045.94,2088.33 5026.07,2056.33C4984.82,1990.67 4932.69,1928 4924.45,1934.33C4903.45,1949.67 4815.7,2093 4820.57,2104C4822.07,2107 4830.7,2112.33 4840.45,2116C4853.2,2121 4855.82,2123 4849.45,2123C4839.32,2123.33 4832.95,2131.67 4805.2,2183C4788.7,2213.67 4784.2,2225 4783.82,2239.33L4783.07,2257.67L4816.82,2268.33L4803.7,2269.33C4796.57,2270 4786.82,2273.67 4781.95,2277.67C4765.45,2291.33 4742.95,2324.33 4722.7,2364.67C4700.95,2407 4699.45,2417.67 4714.45,2421C4719.32,2422.33 4726.45,2425.33 4730.57,2428C4737.32,2432.33 4736.95,2432.67 4721.95,2431C4707.32,2429.33 4704.7,2430 4692.7,2440.33C4679.2,2452 4593.7,2587.67 4593.7,2597.33C4593.7,2604.67 4599.32,2608 4631.2,2619.67C4646.95,2625 4655.57,2629.67 4651.07,2629.67C4645.07,2630 4640.2,2634 4634.95,2643.67C4627.07,2657 4626.7,2657.33 4619.57,2651.33C4612.07,2645.33 4612.07,2645 4621.45,2642.33C4629.32,2640 4630.45,2638.33 4627.45,2633.33C4624.82,2629 4616.2,2626 4595.95,2623.33C4580.95,2621 4566.32,2618 4563.7,2616.67C4559.95,2614.67 4562.95,2608 4574.57,2590C4592.2,2562.67 4592.95,2566.33 4561.82,2538.33L4543.07,2521.67L4553.57,2520.67C4559.2,2520 4563.7,2518.33 4563.7,2517C4563.7,2507.33 4549.82,2478.33 4532.2,2450.67C4520.57,2432.67 4511.2,2416 4511.2,2414C4511.2,2411.67 4517.2,2410 4526.2,2410C4534.45,2410 4541.2,2408.33 4541.2,2406.33C4541.2,2404.33 4529.2,2383.67 4514.2,2360C4488.7,2319.33 4447.08,2266.67 4439.95,2266.67C4431.7,2266.67 4357.45,2382.33 4357.45,2395.33C4357.45,2398 4364.58,2402.67 4373.2,2405.67C4388.2,2411 4388.58,2411.67 4379.95,2413.33C4372.83,2415 4366.45,2422.33 4352.58,2446.67C4324.08,2496.67 4321.83,2512 4341.7,2519C4350.7,2522.33 4351.08,2522.67 4343.58,2523C4331.2,2523.67 4309.83,2548 4289.95,2585C4264.45,2632 4264.45,2632 4279.45,2640L4291.83,2646.67L4280.2,2646.67C4272.7,2646.67 4265.58,2649.67 4259.2,2656C4247.95,2666.33 4184.95,2767 4184.95,2774.33C4184.95,2777.33 4195.45,2783.33 4209.33,2788.67C4229.2,2796.33 4232.2,2798.67 4226.2,2800.67C4221.7,2802.33 4210.08,2819.33 4193.95,2849C4180.08,2874.33 4163.2,2902 4156.08,2910.33C4149.33,2919 4143.7,2927.67 4143.7,2929.33C4143.7,2931.33 4150.83,2934.67 4159.83,2936.67C4168.45,2938.67 4181.2,2942 4187.95,2943.67L4199.95,2947.33L4193.2,2956C4189.45,2961 4180.08,2977.33 4172.58,2992.67C4165.08,3008 4151.2,3028.67 4141.83,3038.67C4132.45,3049 4124.95,3059.33 4124.95,3061.67C4124.95,3064 4131.33,3068.33 4139.2,3071C4146.7,3074 4150.45,3076.33 4147.08,3076.33C4142.95,3076.67 4133.2,3091.33 4118.58,3119.33C4105.83,3142.67 4088.2,3170 4079.2,3180C4070.2,3190 4063.45,3200.67 4064.2,3203.67C4066.08,3213 4093.83,3220 4169.95,3230.33C4210.08,3236 4255.83,3242.33 4271.2,3244.33C4296.33,3248 4304.2,3247.67 4344.33,3241C4369.08,3237 4391.58,3233.67 4394.2,3233.33C4397.2,3233.33 4398.7,3239.67 4398.7,3254.33L4398.7,3275.67L4351.08,3277.67C4183.83,3285.33 4063.45,3294.67 4033.83,3302.67C4010.96,3308.33 4008.71,3308.67 4010.96,3303.67C4012.08,3300.67 4014.71,3292 4016.58,3284C4018.46,3276.33 4021.46,3267 4023.71,3263.67C4029.33,3253.67 4028.58,3248.33 4022.21,3253.33C4019.21,3255.33 4013.21,3266.67 4008.71,3278.67C3994.46,3316 3990.71,3312 3988.08,3256.33C3986.96,3234 3985.46,3215 3984.33,3214C3983.21,3213 3979.46,3214.67 3975.71,3217.67C3966.33,3225.33 3956.58,3224.67 3946.08,3216L3937.46,3209L3937.08,3237C3936.71,3267 3933.33,3292.33 3925.83,3317C3920.96,3332.33 3920.96,3332.33 3896.58,3338.33C3883.08,3341.33 3868.83,3345 3865.08,3346C3859.08,3347.33 3858.33,3346 3860.21,3336.33C3861.33,3330 3863.21,3312 3864.71,3296C3866.58,3268.33 3867.33,3266.67 3875.58,3266.67C3886.08,3266.67 3889.46,3274 3886.46,3288.33C3883.46,3302.67 3890.58,3306.33 3902.21,3296.33C3910.83,3289.33 3911.21,3286.67 3909.33,3270C3907.83,3260 3904.46,3242.33 3901.08,3231C3895.83,3210.33 3895.83,3210 3905.21,3199C3920.21,3181.67 3926.96,3164.33 3922.46,3156.67C3920.21,3153 3917.21,3150 3915.33,3150C3913.83,3150 3911.21,3138.33 3910.46,3124C3907.83,3090.33 3896.58,3067 3874.83,3050C3847.83,3029 3805.08,3020.67 3772.08,3030.33C3729.71,3043 3706.08,3095 3721.83,3141.33C3729.71,3164.33 3728.96,3172 3719.21,3174.67L3710.58,3176.67L3719.58,3183.33C3724.46,3187 3731.58,3190 3735.33,3190C3746.58,3190 3743.96,3194.33 3720.33,3214.33C3703.08,3229 3695.21,3233.33 3686.58,3233.33C3680.21,3233.33 3673.83,3233.67 3672.33,3234.33C3669.71,3235 3661.08,3169.67 3660.33,3144.33C3659.96,3135.67 3648.71,3133.67 3648.71,3142C3648.71,3146.67 3647.96,3146.67 3640.46,3142C3627.34,3133.67 3615.34,3135.67 3581.21,3150.33C3551.96,3163 3548.21,3164 3535.09,3161C3509.96,3155 3512.59,3169.67 3540.71,3193C3559.84,3209 3574.46,3212 3592.84,3203.67C3623.21,3189.67 3653.96,3198 3656.96,3221.67C3657.71,3228 3657.34,3233.67 3655.84,3234C3654.34,3234.67 3652.09,3240.33 3650.59,3247C3648.71,3256 3649.84,3260.33 3654.71,3264.67C3659.59,3269.33 3662.21,3282 3666.33,3326C3673.08,3398.33 3673.46,3397 3652.46,3402.67C3533.21,3434 3536.96,3433.33 3474.34,3433.33L3415.46,3433.33L3348.71,3465.33C3297.71,3489.33 3279.34,3500 3271.46,3509.33C3265.84,3516 3259.09,3522.67 3257.21,3524C3254.96,3525.33 3237.34,3526.67 3218.21,3526.67C3188.59,3526.67 3179.59,3528 3156.34,3536.67C3133.09,3545 3118.47,3547.33 3050.59,3553.33C3007.47,3557 2967.72,3560 2962.47,3559.67C2957.22,3559.67 2932.09,3550.33 2906.97,3539L2906.97,3539Z" style="fill-rule: nonzero; fill: rgb(38, 106, 131);"/>
    <path d="M3684.71,3386C3683.96,3381.67 3680.96,3354 3677.96,3324L3673.08,3269.67L3683.96,3265C3689.96,3262.33 3699.33,3260 3704.58,3260C3709.83,3260 3721.83,3256 3730.83,3251.67C3739.83,3247 3748.08,3243.67 3748.83,3244.67C3749.58,3245.33 3751.46,3265.33 3752.58,3288.67C3753.71,3312.33 3756.71,3337.67 3759.33,3345C3763.46,3356.33 3763.46,3359.33 3758.96,3363.67C3755.96,3366.33 3753.71,3370.67 3753.71,3372.67C3753.71,3374.67 3747.33,3378 3739.83,3379.67C3731.96,3381.67 3717.33,3385.33 3706.83,3388.33C3696.71,3391 3687.71,3393.33 3687.33,3393.33C3686.58,3393.33 3685.46,3390 3684.71,3386L3684.71,3386Z" style="fill-rule: nonzero; fill: rgb(38, 106, 131);"/>
    <path d="M1813.11,3263C1774.11,3262 1722.73,3260.67 1699.86,3260.33L1657.48,3260L1657.48,3224.33L1707.36,3232C1788.36,3244 1793.98,3244.67 1799.98,3244C1815.36,3242.67 1863.73,3236.67 1878.73,3234.67L1895.6,3232.33L1885.48,3242.33C1872.73,3254.33 1872.73,3255.33 1884.35,3258C1889.6,3259.33 1892.98,3261.67 1891.85,3263.33C1890.73,3265.33 1888.48,3266.33 1886.98,3266C1885.48,3265.67 1852.48,3264.33 1813.11,3263ZM1398.74,3254.33C1333.86,3253 996.739,3238.33 931.865,3234L898.115,3231.67L927.74,3222C956.24,3212.33 958.114,3212.33 983.99,3216.33C1005.36,3219.33 1018.49,3219.33 1046.61,3216C1091.61,3210.67 1126.11,3210.67 1166.24,3216C1183.86,3218.33 1241.24,3226 1293.74,3232.67L1389.36,3245L1438.11,3238C1465.11,3234 1495.86,3229.67 1506.73,3228.33L1526.23,3226.33L1526.23,3256.67L1484.23,3256C1460.98,3255.67 1422.36,3255 1398.74,3254.33L1398.74,3254.33Z" style="fill:rgb(169,203,207);fill-rule:nonzero;"/>
  </g>
  <path d="M5045.3,587.305L5048.24,585.245L5446.04,1034.85L5443.1,1036.91L5045.3,587.305ZM5443.76,1038.57L5447.51,1038.57L5447.51,1420.62L5443.76,1420.62L5443.76,1038.57Z" style="fill:rgb(169,201,207);"/>
  <g transform="matrix(7.04898,0,0,8.91077,26.676,-3068.49)">
    <ellipse cx="712.157" cy="409.949" rx="2.128" ry="1.496" style="fill:rgb(169,201,207);"/>
  </g>
  <g transform="matrix(7.04898,0,0,8.91077,425.624,-2235.68)">
    <ellipse cx="712.157" cy="409.949" rx="2.128" ry="1.496" style="fill:rgb(169,201,207);"/>
  </g>
  <g transform="matrix(7.04898,0,0,8.91077,-173.538,-3117.67)">
    <ellipse cx="712.157" cy="409.949" rx="2.128" ry="1.496" style="fill:rgb(169,201,207);"/>
  </g>
  <g transform="matrix(3.039,0,0,2.53965,2529.74,5.445)">
    <ellipse cx="958.798" cy="405.718" rx="11.106" ry="11.813" style="fill:rgb(169,201,207);"/>
  </g>
  <path d="M4511.15,1157.66L4513.73,1155.24L4825.9,1417.86L4823.32,1420.28L4511.15,1157.66Z" style="fill:rgb(169,201,207);"/>
  <path d="M4823.5,1419.41L4825.8,1422.04L4486.29,1656.32L4483.99,1653.69L4823.5,1419.41Z" style="fill:rgb(169,201,207);"/>
  <g transform="matrix(4.22084,0,0,3.5273,464.759,-275.56)">
    <ellipse cx="958.798" cy="405.718" rx="11.106" ry="11.813" style="fill:rgb(169,201,207);"/>
  </g>
  <g transform="matrix(7.04898,0,0,8.91077,-201.052,-2235.24)">
    <ellipse cx="712.157" cy="409.949" rx="2.128" ry="1.496" style="fill:rgb(169,201,207);"/>
  </g>
  <path d="M1453.57,1602.55L1453.54,1599.22L1949.84,1596.28L1949.87,1599.61L1453.57,1602.55ZM2336.33,1133.35L2339.35,1135.33L1958.51,1596.38L1955.48,1594.41L2336.33,1133.35Z" style="fill:rgb(169,201,207);"/>
  <g transform="matrix(7.04898,0,0,8.91077,-3564.79,-2054.33)">
    <ellipse cx="712.157" cy="409.949" rx="2.128" ry="1.496" style="fill:rgb(169,201,207);"/>
  </g>
  <g transform="matrix(4.22084,0,0,3.5273,-2096.02,164.626)">
    <ellipse cx="958.798" cy="405.718" rx="11.106" ry="11.813" style="fill:rgb(169,201,207);"/>
  </g>
  <g transform="matrix(7.04898,0,0,8.91077,-2678.36,-2523.63)">
    <ellipse cx="712.157" cy="409.949" rx="2.128" ry="1.496" style="fill:rgb(169,201,207);"/>
  </g>
  <g transform="matrix(7.04898,0,0,8.91077,-2626.88,-2658.82)">
    <ellipse cx="712.157" cy="409.949" rx="2.128" ry="1.496" style="fill:rgb(169,201,207);"/>
  </g>
  <path d="M1295.71,284.636L1298.29,282.214L1765.65,675.4L1763.07,677.821L1295.71,284.636Z" style="fill:rgb(169,201,207);"/>
  <g transform="matrix(7.04898,0,0,8.91077,-3721.28,-3369.17)">
    <ellipse cx="712.157" cy="409.949" rx="2.128" ry="1.496" style="fill:rgb(169,201,207);"/>
  </g>
  <path d="M691.09,1029.01L694.817,1029.38L623.454,1597.85L619.727,1597.48L691.09,1029.01Z" style="fill:rgb(169,201,207);"/>
  <g transform="matrix(7.04898,0,0,8.91077,-4400.01,-2059.28)">
    <ellipse cx="712.157" cy="409.949" rx="2.128" ry="1.496" style="fill:rgb(169,201,207);"/>
  </g>
  <g transform="matrix(7.04898,0,0,8.91077,-4281.06,-1894.04)">
    <ellipse cx="712.157" cy="409.949" rx="2.128" ry="1.496" style="fill:rgb(169,201,207);"/>
  </g>
  <g transform="matrix(3.02025,0.29958,-0.31685,2.52399,-2073.82,-284.777)">
    <ellipse cx="958.798" cy="405.718" rx="11.106" ry="11.813" style="fill:rgb(169,201,207);"/>
  </g>
  <g>
    <path d="M5795.3,2339.4L5786.28,2337.99L5808.99,2297.58C5821.35,2275.26 5836.18,2252.47 5841.81,2247.07L5851.92,2236.97L5843.21,2250.59C5825.87,2278.32 5805.48,2325.07 5809.19,2328.82C5811.25,2330.94 5818.78,2334.46 5826.39,2336.81L5839.88,2341.04L5822.12,2341.04C5812.44,2341.04 5800.34,2340.34 5795.3,2339.4L5795.3,2339.4ZM5110.44,2660.33L5077.82,2655L5117.19,2595C5138.57,2562 5162.57,2529.67 5170.07,2523.33L5183.57,2511.67L5176.07,2523.33C5171.94,2529.67 5154.69,2558 5137.82,2585.67C5114.19,2624.33 5107.82,2638 5110.44,2642C5112.32,2645.33 5125.82,2652 5139.69,2657C5170.44,2668 5161.82,2669 5110.44,2660.33ZM1976.3,2831C1999.49,2823.33 2008.44,2818.66 2010.07,2813.33C2011.69,2808.33 2000.3,2789 1971.01,2747C1906.33,2654 1929.11,2669.33 2003.56,2768.66C2027.56,2800.66 2046.68,2827 2046.27,2827.66C2045.05,2828.66 1957.59,2841.66 1950.67,2841.33C1947.42,2841.33 1958.81,2836.66 1976.3,2831ZM1182.84,2869.2C1174.45,2851.9 1167.95,2837.63 1168.76,2837.63C1169.31,2837.63 1176.62,2849.43 1185.01,2863.71C1193.4,2877.98 1201.25,2890.33 1202.61,2891.15C1205.31,2892.8 1203.15,2900.76 1200.17,2900.76C1199.36,2900.76 1191.51,2886.49 1182.84,2869.2ZM2107.48,3199.33C2144.98,3186 2144.98,3182.33 2111.98,3148.33C2094.35,3130.33 2080.85,3112 2069.98,3091.67C2061.35,3075.33 2052.73,3059 2050.85,3056C2048.6,3052.67 2047.85,3050 2048.98,3050C2049.73,3050 2060.6,3064 2072.6,3080.67C2084.6,3097.67 2113.48,3130.33 2137.1,3153.33L2179.85,3195L2148.35,3199C2131.1,3201 2112.73,3202.67 2107.48,3202.67L2098.1,3203L2107.48,3199.33ZM2014.12,3010.78C2051.62,2997.44 2051.62,2993.78 2018.62,2959.78C2001,2941.78 1987.5,2923.44 1976.62,2903.11C1968,2886.78 1959.37,2870.44 1957.5,2867.44C1955.25,2864.11 1954.5,2861.44 1955.62,2861.44C1956.37,2861.44 1967.25,2875.44 1979.25,2892.11C1991.25,2909.11 2020.12,2941.78 2043.75,2964.78L2086.5,3006.44L2055,3010.44C2037.75,3012.44 2019.37,3014.11 2014.12,3014.11L2004.75,3014.44L2014.12,3010.78ZM4429.83,3177L4394.95,3171.67L4431.7,3133.33C4451.95,3112.33 4477.45,3082 4488.32,3066C4516.45,3024 4517.2,3026.67 4490.95,3078C4483.45,3092.33 4466.95,3115 4454.58,3128.67C4425.7,3159.67 4426.08,3166.67 4456.83,3175C4492.08,3185 4483.45,3185.67 4429.83,3177ZM4060.91,3219.29L4026.04,3213.95L4062.79,3175.62C4083.04,3154.62 4108.53,3124.29 4119.41,3108.29C4147.53,3066.29 4148.28,3068.95 4122.03,3120.29C4114.53,3134.62 4098.03,3157.29 4085.66,3170.95C4056.79,3201.95 4057.16,3208.95 4087.91,3217.29C4123.16,3227.29 4114.53,3227.95 4060.91,3219.29L4060.91,3219.29ZM4958.57,3166C4943.57,3164 4931.2,3161.67 4931.2,3160.67C4931.2,3159.33 4945.82,3143.33 4963.45,3125C4981.07,3106.67 5003.94,3079.33 5014.44,3064.33C5024.94,3049 5033.94,3036.67 5034.69,3036.67C5035.44,3036.67 5029.44,3049.67 5021.19,3066C5012.94,3083 4997.19,3105.67 4983.69,3120.67C4957.44,3150.33 4957.44,3156 4984.44,3164.33C5002.82,3170 4997.19,3170.33 4958.57,3166ZM485.62,3163.33C489.745,3161.67 499.494,3158 507.37,3155.33C526.87,3148.33 525.37,3141 499.494,3114.33C485.62,3100 470.994,3079.67 459.744,3058.33C439.495,3020.33 440.995,3020.33 469.87,3060C481.12,3075.67 505.12,3103 523.12,3121C541.119,3139 554.994,3154.33 554.244,3155C553.494,3155.67 541.119,3158 526.869,3160C512.244,3162 495.745,3164.33 489.369,3165C479.995,3166.33 479.619,3166 485.619,3163.33L485.62,3163.33ZM5025.32,2993.67L5012.57,2991.67L5043.32,2958.33C5060.57,2940 5078.57,2917.67 5083.44,2909C5088.69,2900 5093.57,2893.33 5094.69,2894C5098.44,2897.67 5078.57,2930.33 5058.32,2953C5045.94,2966.33 5036.19,2978.33 5036.19,2979.67C5036.19,2983.67 5042.19,2988.67 5051.19,2992.33L5060.57,2996.33L5049.32,2996C5043.32,2996 5032.44,2995 5025.32,2993.67L5025.32,2993.67ZM4511.57,2989.67C4500.32,2988 4490.2,2986 4489.45,2985.33C4488.7,2984.33 4502.57,2968.33 4520.2,2949.33C4537.82,2930.33 4558.45,2905 4565.95,2892.67C4573.82,2880 4580.57,2870.67 4581.32,2871.33C4585.45,2875 4554.32,2925 4534.45,2946.33C4520.95,2961 4512.7,2973 4513.82,2976C4514.95,2978.67 4522.82,2983.67 4531.45,2987C4547.95,2993.67 4543.45,2994.33 4511.57,2989.67Z" style="fill:rgb(169,201,207);fill-rule:nonzero;"/>
    <path d="M4126.14,3074C4114.7,3072.56 4104.35,3070.84 4103.53,3070.26C4102.67,3069.4 4114.75,3055.6 4130.24,3039.22C4145.74,3022.83 4163.52,3000.98 4169.64,2990.35C4176.09,2979.42 4181.8,2971.37 4182.62,2971.95C4187.16,2975.11 4161.64,3018.23 4144.16,3036.63C4132.3,3049.28 4125.4,3059.63 4126.86,3062.21C4128.28,3064.51 4136.72,3068.83 4145.72,3071.7C4162.96,3077.45 4158.54,3078.02 4126.14,3074L4126.14,3074ZM428.245,2984.67C435.745,2981.67 442.87,2977.33 443.995,2975C444.745,2972.67 435.37,2960 422.995,2947C404.245,2927.33 374.995,2882.33 374.995,2874C374.995,2872.67 382.495,2883 391.871,2896.67C401.246,2910.33 422.245,2935.33 438.371,2951.67C471.37,2985 471.37,2985 434.245,2988.33L414.37,2990L428.245,2984.67ZM5065.07,2840.33L5028.69,2835L5056.82,2805C5072.57,2788.67 5092.07,2764 5100.32,2751C5115.69,2726.33 5121.32,2720.33 5114.94,2734.67C5107.07,2753.67 5086.82,2786.33 5072.94,2802.67C5064.69,2812.33 5059.07,2822.33 5059.82,2824.67C5060.94,2827 5076.69,2832.67 5095.07,2837.67C5134.07,2847.67 5122.07,2849 5065.07,2840.33ZM367.496,2831.67C376.871,2829 391.496,2825.33 400.496,2823.33C409.496,2821.33 417.37,2817.67 418.496,2815C419.62,2812.33 413.246,2801.67 403.871,2791C388.871,2774 354.371,2717.33 357.371,2714.67C357.746,2714 366.371,2725.33 375.746,2739.33C385.121,2753.33 406.121,2778.33 421.87,2794.33C437.995,2810.33 450.37,2824.33 449.245,2825C446.995,2827 371.245,2836.67 360.371,2836.33C352.871,2836 354.746,2835 367.496,2831.67ZM4549.82,2820.67C4526.57,2817.67 4507.45,2814.33 4507.45,2813C4507.45,2811.67 4520.57,2796.67 4537.07,2779C4553.2,2761.67 4575.32,2733.67 4585.82,2717C4596.7,2700.33 4606.45,2686.67 4607.2,2686.67C4608.32,2686.67 4607.2,2689.33 4605.32,2692.67C4603.45,2695.67 4594.45,2712.67 4585.07,2730C4576.07,2747.33 4561.45,2769.33 4552.82,2779C4544.57,2788.67 4537.45,2797.67 4537.45,2799.33C4537.45,2805.67 4547.57,2809.67 4582.45,2818C4623.7,2827.67 4613.2,2828.33 4549.82,2820.67ZM4154.13,2944.7C4129.82,2941.81 4109.82,2938.61 4109.82,2937.33C4109.82,2936.04 4123.54,2921.62 4140.8,2904.63C4157.66,2887.96 4180.8,2861.03 4191.78,2845C4203.15,2828.97 4213.35,2815.83 4214.13,2815.83C4215.31,2815.83 4214.13,2818.4 4212.17,2821.6C4210.21,2824.49 4200.8,2840.84 4190.99,2857.51C4181.58,2874.18 4166.29,2895.33 4157.27,2904.63C4148.64,2913.93 4141.19,2922.58 4141.19,2924.18C4141.19,2930.27 4151.78,2934.12 4188.25,2942.14C4231.39,2951.43 4220.41,2952.07 4154.13,2944.7L4154.13,2944.7ZM4603.71,2620.63C4580.46,2617.63 4561.33,2614.29 4561.33,2612.96C4561.33,2611.63 4574.46,2596.63 4590.96,2578.96C4607.08,2561.63 4629.21,2533.63 4639.71,2516.96C4650.58,2500.29 4660.33,2486.63 4661.08,2486.63C4662.21,2486.63 4661.08,2489.29 4659.21,2492.63C4657.33,2495.63 4648.33,2512.63 4638.96,2529.96C4629.96,2547.29 4615.33,2569.29 4606.71,2578.96C4598.46,2588.63 4591.33,2597.63 4591.33,2599.29C4591.33,2605.63 4601.46,2609.63 4636.33,2617.96C4677.58,2627.63 4667.08,2628.29 4603.71,2620.63ZM4710.04,2423.48C4694.99,2420.48 4682.72,2417.15 4682.87,2415.81C4683.03,2414.48 4693.48,2399.48 4706.47,2381.81C4719.18,2364.48 4737.11,2336.48 4746.02,2319.81C4755.18,2303.15 4763.23,2289.48 4763.73,2289.48C4764.48,2289.48 4763.42,2292.15 4761.78,2295.48C4760.19,2298.48 4752.24,2315.48 4744,2332.81C4736.01,2350.15 4723.75,2372.15 4716.9,2381.81C4710.31,2391.48 4704.54,2400.48 4704.34,2402.15C4703.6,2408.48 4709.84,2412.48 4731.95,2420.81C4758.14,2430.48 4751.1,2431.15 4710.04,2423.48L4710.04,2423.48ZM1176.36,2715C1164.74,2694 1155.74,2676.67 1156.86,2676.67C1157.61,2676.67 1167.74,2691 1179.36,2708.33C1190.99,2725.67 1201.86,2740.67 1203.74,2741.67C1207.49,2743.67 1204.49,2753.33 1200.36,2753.33C1199.24,2753.33 1188.36,2736 1176.36,2715L1176.36,2715ZM5110.44,2660.33L5077.82,2655L5117.19,2595C5138.57,2562 5162.57,2529.67 5170.07,2523.33L5183.57,2511.67L5176.07,2523.33C5171.94,2529.67 5154.69,2558 5137.82,2585.67C5114.19,2624.33 5107.82,2638 5110.44,2642C5112.32,2645.33 5125.82,2652 5139.69,2657C5170.44,2668 5161.82,2669 5110.44,2660.33ZM4188.63,2795.23L4155.42,2790.76L4188.21,2740.47C4205.96,2712.81 4226.42,2685.71 4233.22,2680.4L4245.44,2670.62L4239.22,2680.4C4235.79,2685.71 4221.65,2709.46 4207.81,2732.65C4188.43,2765.06 4183.55,2776.51 4186.61,2779.87C4188.86,2782.66 4203.09,2788.25 4217.51,2792.44C4249.47,2801.66 4240.95,2802.5 4188.63,2795.23ZM5281.5,2332.93L5249.06,2328.96L5275.77,2284.28C5290.18,2259.7 5307.25,2235.62 5313.29,2230.91L5324.12,2222.22L5319.07,2230.91C5316.28,2235.62 5304.97,2256.72 5293.89,2277.33C5278.37,2306.12 5274.79,2316.3 5278.07,2319.28C5280.49,2321.76 5294.75,2326.72 5309.06,2330.45C5340.75,2338.64 5332.63,2339.38 5281.5,2332.93ZM5210.87,2479.61L5178.24,2474.94L5217.62,2422.32C5238.99,2393.38 5262.99,2365.02 5270.49,2359.47L5283.99,2349.24L5276.49,2359.47C5272.37,2365.02 5255.12,2389.87 5238.24,2414.13C5214.62,2448.04 5208.24,2460.03 5210.87,2463.53C5212.74,2466.46 5226.24,2472.3 5240.12,2476.69C5270.87,2486.34 5262.24,2487.21 5210.87,2479.61ZM334.871,2646C356.246,2638.33 364.496,2633.67 365.996,2628.33C367.496,2623.33 356.996,2604 329.996,2562C270.372,2469 291.372,2484.33 359.996,2583.67C382.121,2615.67 399.746,2642 399.371,2642.67C398.246,2643.67 317.621,2656.67 311.247,2656.33C308.247,2656.33 318.747,2651.67 334.871,2646L334.871,2646ZM244.872,2467.33C252.747,2464.33 259.872,2458.67 260.997,2455C263.247,2447 232.122,2385.33 213.373,2361L201.373,2345L219.373,2360C232.873,2371.67 242.247,2385 260.997,2419.67C274.122,2444.33 284.997,2464.67 284.997,2465.33C284.997,2465.67 275.997,2467 265.497,2468.33C254.622,2469.33 242.247,2471 238.122,2471.67C233.997,2472.67 236.997,2470.67 244.872,2467.33ZM166.873,2319.67C185.998,2313 188.248,2310 185.623,2294.33C184.498,2286.33 180.748,2274.67 177.748,2268.33C170.998,2253.67 173.998,2253 182.248,2267.67C188.623,2278 203.248,2317.33 201.373,2318.67C200.998,2319 190.498,2320.33 178.123,2321.33C158.623,2323 157.123,2322.67 166.873,2319.67ZM1728.73,2270C1731.73,2268.33 1737.36,2266.67 1740.73,2266.67C1744.48,2266.67 1749.73,2263.33 1752.73,2259C1757.61,2252.67 1757.98,2249 1753.48,2235C1750.86,2225.67 1743.36,2209 1736.61,2197.67C1730.23,2186 1725.73,2176.67 1726.48,2176.67C1730.61,2176.67 1758.73,2221.67 1765.48,2240C1778.23,2273 1778.23,2273.33 1748.61,2273.33C1730.61,2273.33 1724.61,2272.33 1728.73,2270L1728.73,2270ZM1813.19,2436.61C1816.15,2434.5 1821.89,2432.15 1825.45,2431.83C1829.41,2431.47 1834.55,2427.33 1837.18,2422.3C1841.55,2414.91 1841.5,2410.86 1835.01,2395.96C1831.09,2385.99 1821.11,2368.44 1812.58,2356.67C1804.41,2344.49 1798.5,2334.7 1799.29,2334.63C1803.65,2334.24 1838.92,2380.86 1848.31,2400.3C1865.85,2435.24 1865.89,2435.6 1834.59,2438.39C1815.58,2440.08 1809.12,2439.55 1813.19,2436.61L1813.19,2436.61ZM1919.48,2633.18C1923.01,2630.71 1929.85,2627.94 1934.09,2627.56C1938.81,2627.14 1944.93,2622.27 1948.08,2616.37C1953.3,2607.69 1953.24,2602.94 1945.55,2585.47C1940.9,2573.78 1929.05,2553.22 1918.92,2539.42C1909.22,2525.16 1902.2,2513.68 1903.15,2513.59C1908.34,2513.13 1950.23,2567.76 1961.37,2590.55C1982.18,2631.49 1982.23,2631.92 1944.96,2635.24C1922.32,2637.25 1914.63,2636.64 1919.48,2633.18ZM4764.32,2266.67C4760.2,2261 4776.32,2220 4792.45,2195C4808.95,2169 4812.7,2168 4798.07,2193.33C4786.45,2213.67 4777.45,2244 4780.07,2253C4781.2,2257 4786.45,2260.67 4793.95,2262C4805.57,2264.33 4805.57,2264.33 4796.2,2267C4781.95,2270.67 4766.95,2270.33 4764.32,2266.67ZM4347.78,2410.96C4344.1,2405.3 4363.46,2364.3 4381.55,2339.3C4400.1,2313.3 4403.93,2312.3 4387.31,2337.63C4374.08,2357.96 4362.69,2388.3 4364.6,2397.3C4365.41,2401.3 4370.37,2404.96 4377.77,2406.3C4389.21,2408.63 4389.21,2408.63 4379.62,2411.3C4365.09,2414.96 4350.11,2414.63 4347.78,2410.96ZM4309.97,2522.95C4306.29,2517.28 4325.65,2476.28 4343.74,2451.28C4362.29,2425.28 4366.12,2424.28 4349.5,2449.62C4336.27,2469.95 4324.88,2500.28 4326.8,2509.28C4327.61,2513.28 4332.57,2516.95 4339.96,2518.28C4351.4,2520.62 4351.4,2520.62 4341.82,2523.28C4327.28,2526.95 4312.3,2526.62 4309.97,2522.95ZM4255.05,2644.45C4251.83,2638.78 4274.49,2597.78 4294.6,2572.78C4315.24,2546.78 4319.15,2545.78 4300.49,2571.12C4285.63,2591.45 4271.79,2621.78 4272.98,2630.78C4273.47,2634.78 4278.14,2638.45 4285.42,2639.78C4296.68,2642.12 4296.68,2642.12 4286.88,2644.78C4272.04,2648.45 4257.1,2648.12 4255.05,2644.45L4255.05,2644.45ZM591.368,2257.67C617.618,2245.67 620.243,2239.67 607.868,2216.67C602.618,2206.67 590.993,2184.33 581.994,2167.33C573.369,2150.33 557.619,2124.67 547.119,2110.67L527.619,2085L545.994,2100.33C556.119,2108.67 568.119,2118.67 572.619,2122C577.119,2125.67 594.369,2154 611.243,2185C627.743,2216.33 643.118,2244.33 644.993,2247.33C647.243,2250.67 648.743,2254 648.743,2254.67C648.743,2258 622.868,2262.67 598.118,2264.33L571.868,2266.33L591.368,2257.67ZM952.49,2244.33C972.74,2237 974.99,2232.67 969.74,2212.33C967.114,2202.67 960.364,2187 954.74,2177.33C940.115,2151.67 945.365,2152 961.49,2177.33C974.24,2197.67 989.99,2235.33 989.99,2245.33C989.99,2249 983.614,2250 964.864,2249.67L939.364,2249.33L952.489,2244.33L952.49,2244.33ZM1031.88,2408.29C1051.3,2396.05 1052.38,2389.86 1040.58,2362.52C1034.83,2349.54 1022.85,2328.76 1013.89,2316.1C990.445,2282.45 996.159,2282.35 1021.11,2315.38C1040.93,2341.91 1069.23,2391.9 1072.28,2405.62C1073.39,2410.66 1066.88,2412.72 1046.73,2414.28L1019.37,2416.57L1031.88,2408.29L1031.88,2408.29ZM1275.71,2434.69C1288.36,2426.78 1289.07,2422.79 1281.43,2405.18C1277.71,2396.82 1269.95,2383.45 1264.14,2375.29C1248.93,2353.62 1252.65,2353.55 1268.83,2374.82C1281.69,2391.9 1300.03,2424.1 1301.99,2432.94C1302.71,2436.18 1298.47,2437.51 1285.36,2438.53L1267.56,2440.03L1275.71,2434.69L1275.71,2434.69ZM1135.29,2604.17C1167.53,2589.33 1170.18,2582.21 1155.92,2551.49C1148.92,2536.91 1133.37,2513.71 1121.3,2499.64C1089.8,2462.22 1098.75,2461.85 1132.7,2498.49C1159.62,2527.93 1196.21,2583.8 1198.87,2599.35C1199.84,2605.05 1189.35,2607.68 1157.6,2610.36L1114.46,2614.18L1135.29,2604.17ZM5297.94,2203.67L5287.82,2201.67L5324.19,2144.33C5344.07,2112.67 5366.94,2080.33 5374.82,2072.67L5389.07,2058.33L5375.57,2077.67C5348.57,2117 5313.32,2183.33 5316.69,2188.67C5318.57,2191.67 5326.44,2196.67 5334.69,2200L5349.32,2206L5328.69,2206C5317.44,2206 5303.57,2205 5297.94,2203.67ZM5795.3,2339.4L5786.28,2337.99L5808.99,2297.58C5821.35,2275.26 5836.18,2252.47 5841.81,2247.07L5851.92,2236.97L5843.21,2250.59C5825.87,2278.32 5805.48,2325.07 5809.19,2328.82C5811.25,2330.94 5818.78,2334.46 5826.39,2336.81L5839.88,2341.04L5822.12,2341.04C5812.44,2341.04 5800.34,2340.34 5795.3,2339.4L5795.3,2339.4ZM5706.07,2540.68L5697.24,2539.27L5725.14,2498.86C5740.37,2476.54 5758.14,2453.75 5764.46,2448.35L5775.88,2438.25L5765.4,2451.87C5744.5,2479.6 5718.1,2526.35 5721.32,2530.1C5723.11,2532.22 5730.19,2535.74 5737.49,2538.09L5750.44,2542.32L5732.68,2542.32C5723,2542.32 5711,2541.62 5706.07,2540.68ZM5759.95,2433.91L5750.79,2432.76L5769.47,2399.93C5779.59,2381.79 5792.16,2363.27 5797.25,2358.88L5806.36,2350.67L5798.99,2361.74C5784.42,2384.27 5768.7,2422.26 5772.78,2425.32C5775.06,2427.03 5782.94,2429.9 5790.77,2431.8L5804.69,2435.24L5786.93,2435.24C5777.25,2435.24 5765.08,2434.67 5759.95,2433.91ZM131.249,2182.33C140.623,2178.33 148.499,2172.33 149.249,2169.33C150.373,2163.33 108.749,2089.67 89.999,2065C74.249,2044 72.749,2041 81.749,2047.67C85.874,2051 93.374,2059.33 98.624,2066C112.499,2084.67 176.623,2184 175.498,2185C174.748,2185.33 160.873,2186.67 144.373,2188L114.373,2190L131.249,2182.33ZM1677.73,2124C1678.86,2122.33 1686.36,2119.33 1694.61,2116.67C1703.23,2114.33 1710.73,2109.67 1712.23,2106C1714.48,2099 1671.36,2023.67 1641.73,1983.33L1623.36,1958.33L1642.11,1976.67C1657.48,1991.67 1734.36,2099.67 1741.86,2117C1743.73,2121.33 1740.36,2122.67 1724.23,2124.33C1696.48,2127.33 1675.48,2127.33 1677.73,2124L1677.73,2124ZM4797.32,2120.67C4789.82,2118.33 4791.7,2115 4827.32,2058C4859.95,2006.33 4894.45,1960 4900.07,1960C4901.95,1960 4900.82,1961.33 4883.95,1985C4864.45,2012.33 4818.32,2097 4819.45,2102.67C4820.2,2105.67 4828.07,2111.67 4837.45,2115.67L4854.32,2123L4829.95,2122.67C4816.45,2122.67 4801.82,2121.67 4797.32,2120.67ZM901.865,2101C895.865,2099.67 897.74,2098 911.24,2093.33C922.49,2089.33 928.49,2085.33 929.24,2080.67C930.74,2072.33 891.365,2001.67 863.99,1963.33L843.74,1935L860.615,1951.67C875.99,1966.67 959.989,2089.33 959.989,2097C959.989,2098.67 955.864,2100 950.989,2100C946.115,2100 934.865,2100.67 925.865,2101.33C916.865,2102.33 905.99,2102 901.865,2101L901.865,2101ZM485.62,2056.67L470.995,2055L488.245,2051C498.745,2048.33 507.745,2044 509.995,2040C515.995,2030.33 505.869,1995.67 487.495,1963.33C466.87,1926.67 468.745,1926.33 492.37,1962C509.244,1987 532.494,2039.33 532.494,2052.33C532.494,2056.67 506.994,2059 485.62,2056.67ZM431.995,1864C451.12,1857.33 457.12,1853.33 458.62,1847.33C460.495,1838.33 407.995,1745 376.87,1701.67C352.496,1667.67 351.746,1666.67 353.246,1666.67C353.996,1666.67 364.121,1676.67 375.746,1689.33C394.121,1709.33 494.995,1858.67 494.995,1866C494.995,1869 446.62,1873.33 419.995,1873C407.995,1873 408.745,1872.33 431.995,1864L431.995,1864Z" style="fill:rgb(169,201,207);fill-rule:nonzero;"/>
  </g>
</svg>