<svg xmlns="http://www.w3.org/2000/svg" viewBox="0 0 228.48 43.44">
    <path fill="#fff" d="M52.68,32.88H2.52V27H52.68Z" transform="translate(-2.52 -8.22)" />
    <path fill="#fff" d="M67.56,50.94h-8V8.88H112V45.12a5.74,5.74,0,0,1-5.76,5.76H67.56Zm0-36.48V27.12h36.36V14.46Zm0,30.84h35a1.24,1.24,0,0,0,1-.39,1.32,1.32,0,0,0,.36-.93V32.7H67.56Z" transform="translate(-2.52 -8.22)" />
    <path fill="#fff" d="M170,50.7H118V44.52H170Zm-3-35.4H121V9.12h46ZM123.48,32.22V26h41.1v6.18Z" transform="translate(-2.52 -8.22)" />
    <path fill="#fff" d="M231,25.68a30.39,30.39,0,0,1-2.88,9.66A32.09,32.09,0,0,1,224,41.76q1,.66,2,1.26a18,18,0,0,0,5,2.1v6.54a22,22,0,0,1-8-2.46,32.67,32.67,0,0,1-4-2.58,36.77,36.77,0,0,1-3.72,2.4,21.28,21.28,0,0,1-8.22,2.64V45.18l-1.62,6.48h-7.5L200,44V15.48l-4.5,10.08h-7.32l4.08-9.24h-14.1l3.54-8h7.44L188,10.8h12v-.72l31-1.86v5.52l-23.64,1.38v4.8H231Zm-44.52-5.76V43.8a1.5,1.5,0,0,0,.54,1.26,1.83,1.83,0,0,0,1.32.6h8.34L194,51.6h-8.16a7.19,7.19,0,0,1-2.58-.48,6.81,6.81,0,0,1-2-1.44,5.45,5.45,0,0,1-1.44-2.1,6.07,6.07,0,0,1-.54-2.52V19.92Zm20.58,25.2a20.77,20.77,0,0,0,5.34-2.22q.84-.54,1.68-1.14a32.77,32.77,0,0,1-3.6-5.52,30.77,30.77,0,0,1-3.12-9.18V44Zm7.32-18.06a27.26,27.26,0,0,0,2.7,6.9q1,1.56,2,2.94a26.79,26.79,0,0,0,2.46-3.78,27.33,27.33,0,0,0,2.64-7.44h-16.8v1.38Z" transform="translate(-2.52 -8.22)" />
</svg>